<svg width="14" height="14" viewBox="0 0 14 14" fill="none" xmlns="http://www.w3.org/2000/svg">
<path d="M13.3004 0H6.30473C6.11919 0 5.94125 0.0737046 5.81006 0.204899C5.67886 0.336094 5.60516 0.514033 5.60516 0.69957C5.60516 0.885108 5.67886 1.06305 5.81006 1.19424C5.94125 1.32544 6.11919 1.39914 6.30473 1.39914H11.6117L0.213571 12.7972C0.146755 12.8618 0.0934597 12.939 0.0567959 13.0243C0.0201321 13.1097 0.000833589 13.2015 2.64137e-05 13.2944C-0.000780762 13.3872 0.0169194 13.4794 0.0520944 13.5653C0.0872694 13.6513 0.139215 13.7294 0.204899 13.7951C0.270584 13.8608 0.348692 13.9127 0.434667 13.9479C0.520641 13.9831 0.612761 14.0008 0.705649 14C0.798538 13.9992 0.890335 13.9799 0.975685 13.9432C1.06104 13.9065 1.13823 13.8532 1.20276 13.7864L12.6009 2.38833V7.69527C12.6009 7.88081 12.6746 8.05875 12.8058 8.18994C12.937 8.32114 13.1149 8.39484 13.3004 8.39484C13.486 8.39484 13.6639 8.32114 13.7951 8.18994C13.9263 8.05875 14 7.88081 14 7.69527V0.69957C14 0.514033 13.9263 0.336094 13.7951 0.204899C13.6639 0.0737046 13.486 0 13.3004 0Z" fill="#F1464D"/>
</svg>
