<svg width="50" height="50" viewBox="0 0 50 50" fill="none" xmlns="http://www.w3.org/2000/svg">
<path d="M25 -6.6518e-07C38.7694 5.38576e-07 50 11.2306 50 25C50 38.7694 38.7694 50 25 50C11.2306 50 2.49844e-06 38.8124 3.70596e-06 25C4.91348e-06 11.1876 11.2306 -1.86894e-06 25 -6.6518e-07ZM25 46.4716C36.833 46.4716 46.4716 36.833 46.4716 25C46.4716 13.167 36.8331 3.5284 25 3.5284C13.167 3.5284 3.5284 13.167 3.5284 25C3.5284 36.833 13.167 46.4716 25 46.4716ZM30.7659 12.5215C31.4544 13.21 31.4544 14.3287 30.7659 15.0172L20.654 25.1291L30.7659 35.241C31.4544 35.9294 31.4544 37.0482 30.7659 37.7367C30.0775 38.4251 28.9587 38.4251 28.2702 37.7367L16.9105 26.3769C16.5663 26.0327 16.3942 25.6024 16.3942 25.1291C16.3942 24.6558 16.5663 24.2255 16.9105 23.8812L28.2702 12.5215C28.6145 12.1773 29.0878 12.0052 29.5181 12.0052C29.9914 12.0052 30.4217 12.1773 30.7659 12.5215Z" fill="#7D7D7D"/>
</svg>
