<svg width="50" height="50" viewBox="0 0 50 50" fill="none" xmlns="http://www.w3.org/2000/svg">
<path d="M25 50C11.2306 50 6.77865e-06 38.7694 4.37114e-06 25C1.96363e-06 11.2306 11.2306 -1.96363e-06 25 -4.37114e-06C38.7694 -6.77865e-06 50 11.1876 50 25C50 38.8124 38.7694 50 25 50ZM25 3.52839C13.167 3.5284 3.5284 13.167 3.5284 25C3.52841 36.833 13.167 46.4716 25 46.4716C36.8331 46.4716 46.4716 36.833 46.4716 25C46.4716 13.1669 36.833 3.52839 25 3.52839ZM19.2341 37.4785C18.5456 36.79 18.5456 35.6713 19.2341 34.9828L29.346 24.8709L19.2341 14.759C18.5456 14.0706 18.5456 12.9518 19.2341 12.2633C19.9225 11.5749 21.0413 11.5749 21.7298 12.2633L33.0895 23.6231C33.4337 23.9673 33.6059 24.3976 33.6059 24.8709C33.6059 25.3442 33.4337 25.7745 33.0895 26.1188L21.7298 37.4785C21.3855 37.8227 20.9122 37.9948 20.4819 37.9948C20.0086 37.9948 19.5783 37.8227 19.2341 37.4785Z" fill="#7D7D7D"/>
</svg>
