<svg width="22" height="22" viewBox="0 0 22 22" fill="none" xmlns="http://www.w3.org/2000/svg">
<path d="M21.9927 8.94915C21.9927 6.6 20.2992 5.3322 18.5545 5.2278C17.4109 2.17763 14.4272 0 10.9304 0C7.43352 0 4.55981 2.18508 3.43086 5.2278C1.6861 5.3322 0 6.6 0 8.94915C0 11.0895 1.04099 12.4244 2.93236 12.678H4.39853V7.97966C4.39853 4.4 7.33089 1.49153 10.9304 1.49153C14.5298 1.49153 17.6015 4.4 17.6015 7.97966V12.678C17.6015 16.0637 15.1163 18.8678 11.9127 19.3153C11.6121 18.6963 10.9963 18.2712 10.2706 18.2712C9.25891 18.2712 8.43785 19.1064 8.43785 20.1356C8.43785 21.1647 9.25891 22 10.2706 22C11.0477 22 11.7074 21.5078 11.9713 20.8142C15.9593 20.322 19.0676 16.8617 19.0676 12.678C20.959 12.4244 22 11.0895 22 8.94915H21.9927ZM1.46618 8.94915C1.46618 7.59186 2.27991 7.00271 3.03499 6.80136C2.97634 7.18915 2.93969 7.57695 2.93969 7.97966V11.1119C1.92802 10.9105 1.47351 10.2393 1.47351 8.94915H1.46618ZM10.2632 20.5085C10.058 20.5085 9.8967 20.3444 9.8967 20.1356C9.8967 19.9268 10.058 19.7627 10.2632 19.7627C10.4685 19.7627 10.6298 19.9268 10.6298 20.1356C10.6298 20.3444 10.4685 20.5085 10.2632 20.5085ZM19.0603 11.1119V7.97966C19.0603 7.57695 19.0237 7.18915 18.9577 6.80136C19.7054 7.00271 20.5192 7.59186 20.5192 8.94915C20.5192 10.3064 20.0646 10.9105 19.053 11.1119H19.0603Z" fill="#333333"/>
</svg>
