<svg width="16" height="22" viewBox="0 0 16 22" fill="none" xmlns="http://www.w3.org/2000/svg">
<path d="M7.99989 10.2671C10.7473 10.2671 12.9815 7.96396 12.9815 5.13304C12.9815 2.30212 10.7463 0 7.99989 0C5.25347 0 3.01831 2.30312 3.01831 5.13304C3.01831 7.96296 5.25347 10.2671 7.99989 10.2671ZM7.99989 1.57152C9.90594 1.57152 11.4551 3.16888 11.4551 5.13178C11.4551 7.09579 9.90487 8.69305 7.99989 8.69305C6.09383 8.69305 4.54468 7.09471 4.54468 5.13178C4.54468 3.16777 6.09491 1.57152 7.99989 1.57152Z" fill="#333333"/>
<path d="M0.76294 22H15.2368C15.6585 22 16 21.6481 16 21.2137V15.3217C16 13.0863 14.2351 11.2689 12.0669 11.2689H3.93315C1.7638 11.2689 0 13.0875 0 15.3217V21.2137C0 21.6481 0.341272 22 0.76294 22ZM1.52612 15.3217C1.52612 13.9543 2.60604 12.8416 3.93302 12.8416H12.0667C13.3937 12.8416 14.4736 13.9543 14.4736 15.3217V20.4273H1.52612V15.3217Z" fill="#333333"/>
</svg>
